<?xml version="1.0" standalone="no"?>
<!DOCTYPE svg PUBLIC "-//W3C//DTD SVG 20010904//EN"
 "http://www.w3.org/TR/2001/REC-SVG-20010904/DTD/svg10.dtd">
<svg version="1.0" xmlns="http://www.w3.org/2000/svg"
 width="259.000000pt" height="259.000000pt" viewBox="0 0 259.000000 259.000000"
 preserveAspectRatio="xMidYMid meet">
<metadata>
Created by potrace 1.11, written by Peter Selinger 2001-2013
</metadata>
<g transform="translate(0.000000,259.000000) scale(0.100000,-0.100000)"
fill="#000000" stroke="none">
<path d="M729 2261 l-39 -39 0 -178 c0 -210 7 -230 84 -259 79 -30 152 -5 188
66 26 49 26 324 1 376 -24 51 -66 73 -137 73 -55 0 -61 -3 -97 -39z"/>
<path d="M1409 2247 c-59 -39 -69 -73 -69 -240 0 -160 8 -194 54 -236 39 -37
128 -41 176 -9 55 38 60 55 60 241 0 187 -7 213 -63 247 -45 28 -115 26 -158
-3z"/>
<path d="M95 1640 c-11 -4 -30 -19 -43 -33 -22 -23 -24 -38 -38 -263 -14 -216
-14 -245 0 -302 30 -122 103 -194 231 -231 66 -19 253 -32 567 -39 l298 -7 27
-27 c25 -25 27 -36 34 -135 8 -133 25 -179 91 -238 80 -72 101 -75 473 -75
382 0 398 3 480 83 71 70 85 117 85 293 l0 133 61 17 c78 22 156 91 189 166
26 61 38 192 39 430 1 147 1 148 -26 178 -35 39 -95 50 -141 26 -57 -30 -60
-41 -68 -286 -4 -146 -11 -236 -19 -257 -25 -60 -49 -65 -317 -61 l-239 3 -30
-33 c-42 -47 -41 -102 4 -147 l32 -32 143 -8 142 -7 0 -108 c0 -129 -8 -154
-51 -169 -51 -18 -530 -15 -574 3 -19 8 -35 16 -36 18 0 2 -4 55 -8 118 -7
101 -11 123 -36 169 -35 64 -81 106 -155 140 -54 25 -61 25 -365 33 -171 4
-364 11 -430 17 -116 9 -120 10 -147 40 -33 37 -35 70 -17 339 7 117 7 175 0
194 -20 52 -99 82 -156 58z"/>
<path d="M936 1400 c-82 -25 -121 -124 -76 -197 34 -56 68 -67 224 -71 193 -5
239 2 285 43 34 31 36 37 36 94 0 52 -4 63 -29 90 -17 17 -46 36 -65 41 -43
12 -334 12 -375 0z"/>
</g>
</svg>
